<svg xmlns="http://www.w3.org/2000/svg" viewBox="0 0 512 512">
  <defs>
    <linearGradient id="bg" x1="0" y1="0" x2="1" y2="1">
      <stop offset="0" stop-color="#2d1b69"/>
      <stop offset="1" stop-color="#1b1140"/>
    </linearGradient>
    <linearGradient id="flame" x1="0" y1="0" x2="0" y2="1">
      <stop offset="0" stop-color="#ffd23f"/>
      <stop offset="1" stop-color="#ff5c7c"/>
    </linearGradient>
  </defs>
  <rect width="512" height="512" rx="112" fill="url(#bg)"/>
  <circle cx="120" cy="120" r="6" fill="#fff" opacity=".8"/>
  <circle cx="400" cy="96" r="5" fill="#fff" opacity=".7"/>
  <circle cx="430" cy="260" r="6" fill="#fff" opacity=".6"/>
  <circle cx="96" cy="330" r="5" fill="#fff" opacity=".7"/>
  <g transform="translate(256 268) rotate(45)">
    <path d="M0,-150 C46,-110 70,-50 70,10 L-70,10 C-70,-50 -46,-110 0,-150 Z" fill="#eef0ff"/>
    <path d="M0,-150 C46,-110 70,-50 70,10 L0,10 Z" fill="#c9cfff"/>
    <circle cx="0" cy="-58" r="34" fill="#00d4ff" stroke="#0083b0" stroke-width="8"/>
    <path d="M-70,10 L-110,70 L-50,46 Z" fill="#7c5cff"/>
    <path d="M70,10 L110,70 L50,46 Z" fill="#7c5cff"/>
    <path d="M-30,46 C-30,96 30,96 30,46 Z" fill="url(#flame)"/>
  </g>
  <text x="256" y="470" font-family="Trebuchet MS, sans-serif" font-size="64" font-weight="bold" fill="#ffd23f" text-anchor="middle">CE2</text>
</svg>
